# xmcd CD database file
#
# Track frame offsets:
#	150
#	24609
#	50334
#
# Disc length: 803 seconds
#
# Revision: 0
# Processed by: cddbd v1.5PL3 Copyright (c) Steve Scherf et al.
# Submitted via: CDex 1.50
#
DISCID=1d032103
DTITLE=直太郎 - ワスレモノ
DYEAR=2001
DGENRE=JPop
TTITLE0=ワスレモノ
TTITLE1=Christmas Avenue
TTITLE2=春の空
EXTD=YEAR: 2001
EXTT0=
EXTT1=
EXTT2=
PLAYORDER=
